<svg xmlns="http://www.w3.org/2000/svg" xmlns:xlink="http://www.w3.org/1999/xlink" width="21.875" height="21.875" x="0" y="0" enable-background="new 0 0 21.875 21.875" version="1.1" viewBox="0 0 21.875 21.875" xml:space="preserve"><g id="Layer_4" display="none"><image width="18" height="24" display="inline" overflow="visible" transform="matrix(0.8497 0 0 0.8497 3.4233 1.0347)" xlink:href="../Downloads/yoooo/glyphicons-673-kettlebell.png"/></g><g id="Layer_3"><g><line x1="14.587" x2="14.587" y1="21.873" y2="21.873" fill="#420863"/><line x1="14.587" x2="14.587" y1="21.873" y2="21.873" fill="#420863"/><line x1="14.587" x2="14.587" y1="21.873" y2="21.873" fill="#420863"/><line x1="14.587" x2="14.587" y1="21.873" y2="21.873" fill="#420863"/><line x1="14.587" x2="14.587" y1="21.873" y2="21.873" fill="#420863"/><line x1="14.587" x2="14.587" y1="21.873" y2="21.873" fill="#420863"/><line x1="14.587" x2="14.587" y1="21.873" y2="21.873" fill="#420863"/><line x1="14.587" x2="14.587" y1="21.873" y2="21.873" fill="#420863"/><line x1="14.587" x2="14.587" y1="21.873" y2="21.873" fill="#420863"/><path fill="#420863" d="M6.531,21.38c-1.805-1.345-2.973-3.494-2.973-5.917c0-2.421,1.167-4.569,2.969-5.915"/><line x1="7.287" x2="7.282" y1="21.875" y2="21.872" fill="#420863"/><polyline fill="#420863" points="15.345 21.376 6.527 21.376 6.527 9.549 15.345 9.549 15.345 21.376"/><circle cx="11.012" cy="6.914" r="5.512" fill="none" stroke="#420863" stroke-miterlimit="10" stroke-width="2"/><path fill="#420863" d="M15.345,21.378c1.806-1.345,2.974-3.494,2.973-5.917c0-2.421-1.167-4.569-2.968-5.915"/></g></g><g id="Layer_2" display="none"><g display="inline"><rect width="14.306" height="5.361" x="3.778" y="11.427" fill="#420863" transform="matrix(-0.7071 0.7071 -0.7071 -0.7071 28.6357 16.3531)"/><rect width="14.305" height="5.361" x="3.792" y="5.088" fill="#420863" transform="matrix(-0.7071 -0.7071 0.7071 -0.7071 13.1915 20.9994)"/></g></g></svg>